<mxfile host="app.diagrams.net" modified="2020-11-29T15:01:23.736Z" agent="5.0 (Windows NT 10.0; Win64; x64) AppleWebKit/537.36 (KHTML, like Gecko) Chrome/86.0.4240.198 Safari/537.36" etag="d8TC4_mIbI_kV6uO40ym" version="13.10.4" type="github">
  <diagram id="C5RBs43oDa-KdzZeNtuy" name="Page-1">
    <mxGraphModel dx="1240" dy="607" grid="1" gridSize="10" guides="1" tooltips="1" connect="1" arrows="1" fold="1" page="1" pageScale="1" pageWidth="827" pageHeight="1169" math="0" shadow="0">
      <root>
        <mxCell id="WIyWlLk6GJQsqaUBKTNV-0" />
        <mxCell id="WIyWlLk6GJQsqaUBKTNV-1" parent="WIyWlLk6GJQsqaUBKTNV-0" />
        <mxCell id="TrQU9aIbdTPqf44Ij-mp-0" value="Grade" style="swimlane;fontStyle=1;align=center;verticalAlign=top;childLayout=stackLayout;horizontal=1;startSize=26;horizontalStack=0;resizeParent=1;resizeParentMax=0;resizeLast=0;collapsible=1;marginBottom=0;" vertex="1" parent="WIyWlLk6GJQsqaUBKTNV-1">
          <mxGeometry x="76" y="184" width="180" height="130" as="geometry" />
        </mxCell>
        <mxCell id="TrQU9aIbdTPqf44Ij-mp-1" value="- score: double" style="text;strokeColor=none;fillColor=none;align=left;verticalAlign=top;spacingLeft=4;spacingRight=4;overflow=hidden;rotatable=0;points=[[0,0.5],[1,0.5]];portConstraint=eastwest;" vertex="1" parent="TrQU9aIbdTPqf44Ij-mp-0">
          <mxGeometry y="26" width="180" height="26" as="geometry" />
        </mxCell>
        <mxCell id="TrQU9aIbdTPqf44Ij-mp-2" value="" style="line;strokeWidth=1;fillColor=none;align=left;verticalAlign=middle;spacingTop=-1;spacingLeft=3;spacingRight=3;rotatable=0;labelPosition=right;points=[];portConstraint=eastwest;" vertex="1" parent="TrQU9aIbdTPqf44Ij-mp-0">
          <mxGeometry y="52" width="180" height="8" as="geometry" />
        </mxCell>
        <mxCell id="TrQU9aIbdTPqf44Ij-mp-3" value="+ setScore(score:double): void&#xa;+ getScore(): double&#xa;+ getGrade(): char&#xa;+ getPassFail(): char" style="text;strokeColor=none;fillColor=none;align=left;verticalAlign=top;spacingLeft=4;spacingRight=4;overflow=hidden;rotatable=0;points=[[0,0.5],[1,0.5]];portConstraint=eastwest;" vertex="1" parent="TrQU9aIbdTPqf44Ij-mp-0">
          <mxGeometry y="60" width="180" height="70" as="geometry" />
        </mxCell>
        <mxCell id="TrQU9aIbdTPqf44Ij-mp-4" value="Essay" style="swimlane;fontStyle=1;align=center;verticalAlign=top;childLayout=stackLayout;horizontal=1;startSize=26;horizontalStack=0;resizeParent=1;resizeParentMax=0;resizeLast=0;collapsible=1;marginBottom=0;" vertex="1" parent="WIyWlLk6GJQsqaUBKTNV-1">
          <mxGeometry x="336" y="155" width="440" height="160" as="geometry" />
        </mxCell>
        <mxCell id="TrQU9aIbdTPqf44Ij-mp-5" value="- grammar: double&#xa;- spelling: double&#xa;- length: double&#xa;- content: double&#xa;- total: double" style="text;strokeColor=none;fillColor=none;align=left;verticalAlign=top;spacingLeft=4;spacingRight=4;overflow=hidden;rotatable=0;points=[[0,0.5],[1,0.5]];portConstraint=eastwest;" vertex="1" parent="TrQU9aIbdTPqf44Ij-mp-4">
          <mxGeometry y="26" width="440" height="84" as="geometry" />
        </mxCell>
        <mxCell id="TrQU9aIbdTPqf44Ij-mp-6" value="" style="line;strokeWidth=1;fillColor=none;align=left;verticalAlign=middle;spacingTop=-1;spacingLeft=3;spacingRight=3;rotatable=0;labelPosition=right;points=[];portConstraint=eastwest;" vertex="1" parent="TrQU9aIbdTPqf44Ij-mp-4">
          <mxGeometry y="110" width="440" height="8" as="geometry" />
        </mxCell>
        <mxCell id="TrQU9aIbdTPqf44Ij-mp-7" value="+ setEssay(grammar:double,spelling:double,length:double,content:double): void&#xa;+ totalEssay(): double" style="text;strokeColor=none;fillColor=none;align=left;verticalAlign=top;spacingLeft=4;spacingRight=4;overflow=hidden;rotatable=0;points=[[0,0.5],[1,0.5]];portConstraint=eastwest;" vertex="1" parent="TrQU9aIbdTPqf44Ij-mp-4">
          <mxGeometry y="118" width="440" height="42" as="geometry" />
        </mxCell>
        <mxCell id="TrQU9aIbdTPqf44Ij-mp-8" value="CourseGrade" style="swimlane;fontStyle=1;align=center;verticalAlign=top;childLayout=stackLayout;horizontal=1;startSize=26;horizontalStack=0;resizeParent=1;resizeParentMax=0;resizeLast=0;collapsible=1;marginBottom=0;" vertex="1" parent="WIyWlLk6GJQsqaUBKTNV-1">
          <mxGeometry x="50" y="420" width="260" height="140" as="geometry" />
        </mxCell>
        <mxCell id="TrQU9aIbdTPqf44Ij-mp-9" value="- markah: Grade[]" style="text;strokeColor=none;fillColor=none;align=left;verticalAlign=top;spacingLeft=4;spacingRight=4;overflow=hidden;rotatable=0;points=[[0,0.5],[1,0.5]];portConstraint=eastwest;" vertex="1" parent="TrQU9aIbdTPqf44Ij-mp-8">
          <mxGeometry y="26" width="260" height="26" as="geometry" />
        </mxCell>
        <mxCell id="TrQU9aIbdTPqf44Ij-mp-10" value="" style="line;strokeWidth=1;fillColor=none;align=left;verticalAlign=middle;spacingTop=-1;spacingLeft=3;spacingRight=3;rotatable=0;labelPosition=right;points=[];portConstraint=eastwest;" vertex="1" parent="TrQU9aIbdTPqf44Ij-mp-8">
          <mxGeometry y="52" width="260" height="8" as="geometry" />
        </mxCell>
        <mxCell id="TrQU9aIbdTPqf44Ij-mp-11" value="+ setLab(lab:double): char&#xa;+ setPassFailExam(passFail:double): char&#xa;+ setEssay(essay:double): char&#xa;+ setFinalExam(finalmark:double): char&#xa;+ toString(mark:double,grade:char): String&#xa;" style="text;strokeColor=none;fillColor=none;align=left;verticalAlign=top;spacingLeft=4;spacingRight=4;overflow=hidden;rotatable=0;points=[[0,0.5],[1,0.5]];portConstraint=eastwest;" vertex="1" parent="TrQU9aIbdTPqf44Ij-mp-8">
          <mxGeometry y="60" width="260" height="80" as="geometry" />
        </mxCell>
        <mxCell id="TrQU9aIbdTPqf44Ij-mp-16" style="edgeStyle=orthogonalEdgeStyle;rounded=0;orthogonalLoop=1;jettySize=auto;html=1;exitX=0;exitY=0.5;exitDx=0;exitDy=0;entryX=1;entryY=0.5;entryDx=0;entryDy=0;endArrow=block;endFill=0;endSize=11;" edge="1" parent="WIyWlLk6GJQsqaUBKTNV-1" source="TrQU9aIbdTPqf44Ij-mp-5" target="TrQU9aIbdTPqf44Ij-mp-1">
          <mxGeometry relative="1" as="geometry" />
        </mxCell>
        <mxCell id="TrQU9aIbdTPqf44Ij-mp-19" style="edgeStyle=orthogonalEdgeStyle;rounded=0;orthogonalLoop=1;jettySize=auto;html=1;endArrow=diamondThin;endFill=0;startSize=6;endSize=11;" edge="1" parent="WIyWlLk6GJQsqaUBKTNV-1" source="TrQU9aIbdTPqf44Ij-mp-3" target="TrQU9aIbdTPqf44Ij-mp-8">
          <mxGeometry relative="1" as="geometry">
            <mxPoint x="180" y="320" as="sourcePoint" />
            <Array as="points">
              <mxPoint x="180" y="330" />
              <mxPoint x="180" y="330" />
            </Array>
          </mxGeometry>
        </mxCell>
        <mxCell id="TrQU9aIbdTPqf44Ij-mp-20" value="&lt;&lt;interface&gt;&gt;&#xa;Analyzable&#xa;" style="swimlane;fontStyle=0;childLayout=stackLayout;horizontal=1;startSize=40;fillColor=none;horizontalStack=0;resizeParent=1;resizeParentMax=0;resizeLast=0;collapsible=1;marginBottom=0;" vertex="1" parent="WIyWlLk6GJQsqaUBKTNV-1">
          <mxGeometry x="510" y="440" width="140" height="100" as="geometry" />
        </mxCell>
        <mxCell id="TrQU9aIbdTPqf44Ij-mp-21" value="getAverage(): double&#xa;getHighest(): Grade&#xa;getLowest(): Grade&#xa;" style="text;strokeColor=none;fillColor=none;align=left;verticalAlign=top;spacingLeft=4;spacingRight=4;overflow=hidden;rotatable=0;points=[[0,0.5],[1,0.5]];portConstraint=eastwest;" vertex="1" parent="TrQU9aIbdTPqf44Ij-mp-20">
          <mxGeometry y="40" width="140" height="60" as="geometry" />
        </mxCell>
        <mxCell id="TrQU9aIbdTPqf44Ij-mp-25" style="edgeStyle=orthogonalEdgeStyle;rounded=0;orthogonalLoop=1;jettySize=auto;html=1;exitX=1;exitY=0.5;exitDx=0;exitDy=0;entryX=-0.003;entryY=0.138;entryDx=0;entryDy=0;entryPerimeter=0;startSize=6;endArrow=block;endFill=0;endSize=11;dashed=1;targetPerimeterSpacing=0;sourcePerimeterSpacing=0;" edge="1" parent="WIyWlLk6GJQsqaUBKTNV-1" source="TrQU9aIbdTPqf44Ij-mp-11" target="TrQU9aIbdTPqf44Ij-mp-21">
          <mxGeometry relative="1" as="geometry" />
        </mxCell>
        <mxCell id="TrQU9aIbdTPqf44Ij-mp-26" style="edgeStyle=orthogonalEdgeStyle;rounded=0;orthogonalLoop=1;jettySize=auto;html=1;exitX=1;exitY=0.5;exitDx=0;exitDy=0;startSize=6;sourcePerimeterSpacing=0;endArrow=oval;endFill=0;endSize=11;targetPerimeterSpacing=0;" edge="1" parent="WIyWlLk6GJQsqaUBKTNV-1" source="TrQU9aIbdTPqf44Ij-mp-9">
          <mxGeometry relative="1" as="geometry">
            <mxPoint x="360" y="410" as="targetPoint" />
          </mxGeometry>
        </mxCell>
      </root>
    </mxGraphModel>
  </diagram>
</mxfile>
